<?xml version="1.0" encoding="UTF-8"?><svg id="Layer_1" xmlns="http://www.w3.org/2000/svg" viewBox="0 0 200 200"><defs><style>.cls-1{fill:#ff284c;}</style></defs><circle cx="100" cy="100" r="100"/><g><path class="cls-1" d="M81.1,124.62l.19-.31c0,.07-.1,.17-.19,.31"/><path class="cls-1" d="M80.99,124.8l.11-.17-.11,.17"/><path class="cls-1" d="M81.32,124.25s0-.03,0-.05v.05"/><path class="cls-1" d="M80.88,124.95l.08-.13-.08,.13"/><path class="cls-1" d="M118.9,124.62l-.19-.31,.19,.31"/><polyline class="cls-1" points="119.15 125.03 119.14 125.02 119.15 125.03"/><path class="cls-1" d="M119,124.8c-.03-.06-.07-.12-.1-.17l.1,.17"/><path class="cls-1" d="M119.12,124.95s-.05-.09-.09-.13l.09,.13"/><path class="cls-1" d="M100,78.41c-6.58,0-9.69-6.6-9.69-6.6,1.14,.53,2.38,.81,3.64,.83,1.59-.13,2.43-2.85,6.05-2.85s4.45,2.72,6.04,2.85c1.26-.01,2.5-.3,3.64-.83,0,0-3.1,6.6-9.68,6.6"/><path class="cls-1" d="M144.44,108.35l.95-6.3c.11-.76,.46-1.47,1.01-2.01l4.9-4.81s1.9-1.75,.83-5.57l-11.4,9.72c-.48,.41-.78,.99-.85,1.62l-1.41,13.49,4.23-3.19c.93-.71,1.54-1.76,1.71-2.92"/><path class="cls-1" d="M162.57,131.72l-11.11-18.41s-1.9,2.98-1.9,3.8c0,.66-1.44,12.95-1.45,17.55,0,1.49-.7,2.9-1.9,3.8l-.65,.48c-1.5,1.13-2.42,2.87-2.51,4.75l-.43,10.7,17.9-13.21c2.97-2.21,3.84-6.27,2.04-9.5"/><path class="cls-1" d="M39.47,141.21l17.89,13.17-.46-10.68c-.08-1.88-1-3.62-2.51-4.75l-.65-.48c-1.2-.9-1.9-2.3-1.9-3.8,0-4.6-1.46-16.89-1.45-17.55,0-.86-1.9-3.8-1.9-3.8l-11.07,18.39c-1.8,3.23-.92,7.29,2.04,9.5"/><path class="cls-1" d="M60.1,101.01c-.06-.63-.37-1.21-.85-1.62l-11.35-9.72c-1.04,3.8,.84,5.57,.84,5.57l4.89,4.81c.55,.54,.91,1.25,1.02,2.01l.95,6.3c.16,1.16,.77,2.21,1.7,2.92l4.19,3.24-1.39-13.49Z"/><path class="cls-1" d="M125.94,128.52l5.39-5.55,2.85-27.47c.02-.19-.12-.37-.32-.38-.15-.01-.28,.06-.35,.19l-2.93,6.76c-.65,1.51-1.57,2.89-2.72,4.07l-2.17,2.25-4.14-2.44,.09-.07h0c1.82-1.59,3.56-4.75,4.22-6.08,.08-.14,.03-.32-.11-.4-.06-.04-.14-.05-.21-.03-1.9,.46-5.95,.8-6.86,1.27s-7.1,5.78-8.72,7.35c-.12,.11-.13,.29-.02,.42,.06,.07,.15,.1,.24,.1,1.53-.12,4.9-.42,7.34-.79l2.13,2.99-4.75,3.88,2.06,3.61s-3.58,.11-4.33-.23-9.72-6.81-9.72-6.81v3.43c-1.52,1.6-4.05,1.68-5.65,.16-.05-.05-.11-.11-.16-.16v-3.42s-8.99,6.47-9.73,6.81-4.32,.23-4.32,.23l2.05-3.61-4.75-3.88,2.01-3.02h.11c2.48,.39,6.73,.68,8.6,.8,.16,.01,.31-.1,.32-.27,0-.1-.04-.2-.12-.27-1.98-1.58-9.07-6.87-9.95-7.33s-4.95-.82-6.86-1.27c-.17-.03-.32,.08-.35,.25-.01,.06,0,.13,.03,.19,.66,1.3,2.4,4.49,4.22,6.08l.24,.18-4.28,2.32-2.18-2.25c-1.14-1.18-2.06-2.56-2.72-4.07l-2.93-6.76c-.09-.17-.3-.25-.47-.16-.13,.06-.21,.2-.19,.35l2.64,25.55c.13,1.24,.67,2.41,1.54,3.3l4.05,4.17c.54,.55,.84,1.29,.84,2.06v3.69l-5.64-2.66,.49,4.34c.12,1.14,.53,2.24,1.18,3.19,6,8.56,14.63,14.92,24.58,18.11,2.93,.92,6.07,.92,8.99,0,9.96-3.21,18.59-9.59,24.59-18.17,.65-.95,1.05-2.05,1.18-3.19l.48-4.34-5.63,2.7v-3.69c0-.77,.3-1.51,.84-2.06m-42.11,11.97c-.26,.16-.56,.26-.86,.27-1.77,0-3.3-3.49-3.3-3.49v-9.36c0-.25,.06-.5,.16-.72l1.02-2.15c.16-.39,.53-.65,.95-.66,1.16,.02,2.1,.97,2.08,2.14h0l-.04,13.98Zm22.5,5.9s-2.94,5.34-6.33,5.34-6.34-5.34-6.34-5.34v-14.27c0-.39,.1-.77,.3-1.1l1.9-3.29c.37-.62,1.04-1,1.76-1.01h4.66c.72,0,1.39,.38,1.76,1.01l1.96,3.29c.19,.34,.29,.72,.29,1.1l.05,14.27Zm13.99-9.12s-1.54,3.49-3.3,3.49c-.31-.01-.6-.1-.86-.27v-13.94c-.02-1.16,.92-2.12,2.08-2.14h0c.42,.01,.79,.27,.95,.66l1.03,2.15c.1,.23,.15,.47,.15,.72l-.04,9.33Z"/><path class="cls-1" d="M106.47,58.29c-.02-.07-.04-.14-.07-.21l-.26-.95-6.14-23.13-5.54,20.82-.7,2.66-.17,.64c-.08,.19-.12,.4-.13,.61-.03,.41,.08,.82,.31,1.17,.11,.18,.26,.33,.43,.46l1.24,.95,4.56-5.93,4.56,5.93,1.24-.95c.08-.06,.16-.13,.23-.21,.07-.08,.14-.16,.19-.25,.23-.34,.34-.75,.31-1.17,0-.14-.03-.27-.07-.4"/><path class="cls-1" d="M100,78.41c6.58,0,9.68-6.6,9.68-6.6-1.14,.53-2.38,.81-3.64,.83-1.59-.13-2.43-2.85-6.04-2.85s-4.46,2.72-6.04,2.85c-1.26-.01-2.5-.3-3.65-.83,0,0,3.11,6.6,9.69,6.6"/><path class="cls-1" d="M139.66,54.88l-2.4,9.64c-.28,1.1-.96,2.05-1.9,2.68l-28.2,19.43v8.34l-1.9,1.31-2.85-2.28c-.27-.22-.6-.34-.95-.33h-2.97c-.35,0-.68,.12-.95,.33l-2.85,2.28-1.9-1.31v-8.34l-28.2-19.43c-.94-.63-1.62-1.58-1.9-2.68l-2.4-9.64h-19.08l5.7,10.11c1.83,3.24,4.44,5.96,7.6,7.92l31.34,19.27v4.44l9.96,8.1c.54,.43,1.21,.67,1.9,.66h4.51c.69,0,1.36-.23,1.9-.66l9.96-8.1v-4.44l31.34-19.27c3.16-1.96,5.77-4.68,7.6-7.92l5.7-10.11h-19.04Z"/></g></svg>